<svg xmlns="http://www.w3.org/2000/svg" viewBox="0 0 1122.853 695.55"><defs><style>.a{fill:none;stroke:#000;stroke-miterlimit:10;}</style></defs><g transform="matrix(0.999, -0.035, 0.035, 0.999, -932.693, 10.721)"><path class="a" d="M1055.611,105.095c0,2.414,3.635,4.37,8.127,4.37s8.132-1.956,8.132-4.37-3.641-4.37-8.132-4.37S1055.611,102.681,1055.611,105.095Z" transform="translate(756.196 346.098)"/><path class="a" d="M1076.717,82.519c0,2.414,3.641,4.37,8.132,4.37s8.126-1.956,8.126-4.37-3.642-4.37-8.126-4.37S1076.717,80.105,1076.717,82.519Z" transform="translate(870.89 209.82)"/><ellipse class="a" cx="8.13" cy="4.37" rx="8.13" ry="4.37" transform="translate(1810.127 252.684)"/><path class="a" d="M1055.485,52.853c0,2.414,3.642,4.37,8.133,4.37s8.126-1.956,8.126-4.37-3.635-4.37-8.126-4.37S1055.485,50.439,1055.485,52.853Z" transform="translate(755.512 30.744)"/><path class="a" d="M1010.049,47.76c0,2.413,3.641,4.37,8.133,4.37s8.126-1.956,8.126-4.37-3.642-4.37-8.126-4.37S1010.049,45.346,1010.049,47.76Z" transform="translate(508.607 0)"/><path class="a" d="M1079.729,73.849c0,2.414,3.642,4.37,8.133,4.37s8.126-1.956,8.126-4.37-3.635-4.37-8.126-4.37S1079.729,71.435,1079.729,73.849Z" transform="translate(887.257 157.484)"/><path class="a" d="M1010,100.216c0,2.413,3.635,4.37,8.126,4.37s8.133-1.956,8.133-4.37-3.642-4.37-8.133-4.37S1010,97.8,1010,100.216Z" transform="translate(508.336 316.647)"/><ellipse class="a" cx="8.13" cy="4.37" rx="8.13" ry="4.37" transform="translate(2025.543 68.668)"/><path class="a" d="M1031.445,98.351c0,2.414,3.636,4.37,8.126,4.37s8.133-1.956,8.133-4.37-3.642-4.37-8.133-4.37S1031.445,95.937,1031.445,98.351Z" transform="translate(624.875 305.389)"/><path class="a" d="M1021.842,110.17c0,2.413,3.642,4.37,8.126,4.37s8.133-1.956,8.133-4.37-3.642-4.363-8.133-4.363S1021.842,107.763,1021.842,110.17Z" transform="translate(572.692 376.776)"/><path class="a" d="M1016.138,110.549c0,2.413,3.642,4.37,8.133,4.37s8.126-1.956,8.126-4.37-3.635-4.37-8.126-4.37S1016.138,108.135,1016.138,110.549Z" transform="translate(541.696 379.021)"/><path class="a" d="M1010.082,110.677c0,2.414,3.642,4.37,8.133,4.37s8.126-1.956,8.126-4.37-3.641-4.37-8.126-4.37S1010.082,108.263,1010.082,110.677Z" transform="translate(508.786 379.794)"/><path class="a" d="M1003.971,110.561c0,2.414,3.642,4.37,8.133,4.37s8.126-1.956,8.126-4.37-3.635-4.37-8.126-4.37S1003.971,108.147,1003.971,110.561Z" transform="translate(475.579 379.094)"/><path class="a" d="M997.973,110.623c0,2.413,3.641,4.37,8.126,4.37s8.133-1.956,8.133-4.37-3.641-4.37-8.133-4.37S997.973,108.209,997.973,110.623Z" transform="translate(442.985 379.468)"/><path class="a" d="M973.754,124.748c0,2.414,3.642,4.37,8.133,4.37s8.126-1.956,8.126-4.37-3.635-4.37-8.126-4.37S973.754,122.334,973.754,124.748Z" transform="translate(311.376 464.732)"/><path class="a" d="M952.8,115.787c0,2.413,3.642,4.363,8.133,4.363s8.126-1.949,8.126-4.363-3.642-4.37-8.126-4.37S952.8,113.366,952.8,115.787Z" transform="translate(197.487 410.64)"/><path class="a" d="M946.61,119.1c0,2.413,3.642,4.37,8.133,4.37s8.127-1.956,8.127-4.37-3.642-4.37-8.127-4.37S946.61,116.69,946.61,119.1Z" transform="translate(163.872 430.663)"/><path class="a" d="M970.828,87.883c0,2.413,3.635,4.37,8.126,4.37s8.126-1.956,8.126-4.37-3.635-4.37-8.126-4.37S970.828,85.469,970.828,87.883Z" transform="translate(295.475 242.2)"/><path class="a" d="M940.639,84.13c0,2.414,3.642,4.37,8.133,4.37s8.126-1.956,8.126-4.37-3.635-4.37-8.126-4.37S940.639,81.716,940.639,84.13Z" transform="translate(131.424 219.545)"/><path class="a" d="M940.495,105.611c0,2.413,3.642,4.37,8.133,4.37s8.126-1.956,8.126-4.37-3.635-4.37-8.126-4.37S940.495,103.2,940.495,105.611Z" transform="translate(130.642 349.213)"/><path class="a" d="M946.536,94.89c0,2.413,3.635,4.37,8.126,4.37s8.133-1.956,8.133-4.37-3.642-4.37-8.133-4.37S946.536,92.476,946.536,94.89Z" transform="translate(163.469 284.497)"/><path class="a" d="M952.6,91.362c0,2.414,3.642,4.37,8.133,4.37s8.126-1.956,8.126-4.37-3.635-4.37-8.126-4.37S952.6,88.948,952.6,91.362Z" transform="translate(196.417 263.2)"/><path class="a" d="M958.663,87.834c0,2.414,3.642,4.37,8.132,4.37s8.127-1.956,8.127-4.37-3.636-4.37-8.127-4.37S958.663,85.42,958.663,87.834Z" transform="translate(229.369 241.904)"/><ellipse class="a" cx="8.13" cy="4.37" rx="8.13" ry="4.37" transform="translate(1227.051 300.545)"/><path class="a" d="M958.725,140.041c0,2.413,3.642,4.37,8.133,4.37s8.127-1.956,8.127-4.37-3.642-4.37-8.127-4.37S958.725,137.627,958.725,140.041Z" transform="translate(229.706 557.047)"/><path class="a" d="M964.5,143.746c0,2.414,3.635,4.37,8.126,4.37s8.126-1.956,8.126-4.37-3.635-4.37-8.126-4.37S964.5,141.332,964.5,143.746Z" transform="translate(261.105 579.412)"/><path class="a" d="M952.651,136.579c0,2.414,3.641,4.37,8.133,4.37s8.126-1.956,8.126-4.37-3.635-4.369-8.126-4.369S952.651,134.166,952.651,136.579Z" transform="translate(196.699 536.155)"/><ellipse class="a" cx="8.129" cy="4.37" rx="8.129" ry="4.37" transform="translate(1110.275 644.015)"/><path class="a" d="M940.5,129.659c0,2.413,3.641,4.37,8.133,4.37s8.126-1.956,8.126-4.37-3.642-4.37-8.126-4.37S940.5,127.245,940.5,129.659Z" transform="translate(130.691 494.377)"/><path class="a" d="M934.543,126.161c0,2.413,3.642,4.37,8.133,4.37s8.126-1.956,8.126-4.37-3.642-4.37-8.126-4.37S934.543,123.747,934.543,126.161Z" transform="translate(98.298 473.262)"/><path class="a" d="M928.556,122.612c0,2.414,3.642,4.37,8.133,4.37s8.126-1.956,8.126-4.37-3.642-4.37-8.126-4.37S928.556,120.2,928.556,122.612Z" transform="translate(65.764 451.839)"/><ellipse class="a" cx="8.13" cy="4.37" rx="8.13" ry="4.37" transform="translate(955.531 545.689)"/><path class="a" d="M916.454,115.647c0,2.413,3.635,4.37,8.126,4.37s8.133-1.956,8.133-4.37-3.642-4.37-8.133-4.37S916.454,113.233,916.454,115.647Z" transform="translate(0 409.795)"/><path class="a" d="M934.421,77.585c0,2.414,3.641,4.37,8.133,4.37s8.126-1.956,8.126-4.37-3.642-4.37-8.126-4.37S934.421,75.171,934.421,77.585Z" transform="translate(97.635 180.036)"/><path class="a" d="M966.062,371.542,1180.3,236.056l155.5.842,214.011-135.544" transform="translate(269.578 349.894)"/><path class="a" d="M917.717,342.814l115.543-74,.367-195.171" transform="translate(6.864 182.629)"/><path class="a" d="M960.037,481.418l251.8-158.64,117.691,1.5L1718.871,78.831" transform="translate(236.838 213.94)"/><path class="a" d="M954.131,488.21l76.161-47.437-1.009-72.812,331.884-209.607,116.378.941,135.8-85.547" transform="translate(204.744 183.254)"/><path class="a" d="M974.935,279.253l.493-25.3,176.24-110.366h116.18l78.274-48.992" transform="translate(317.793 309.071)"/><path class="a" d="M948.5,619.784l74.046-45.383V501.433L1391.962,266.51l115.544,1.78L1859.834,47.6" transform="translate(174.152 25.44)"/><path class="a" d="M1011.336,255.606l58.448-38.476,156.618.621,232.657-147.7" transform="translate(515.599 160.954)"/><path class="a" d="M941.993,207.623l78.118-47.292-.464-48.309" transform="translate(138.782 414.294)"/><path class="a" d="M923.791,546.078l57.766-36.314,38.925-1.014L1312.876,325.3l-40.314-24.325,214.547-135.3V44.049" transform="translate(39.87 3.98)"/><path class="a" d="M1136.065,105.851,941.83,229.856l.525-149.266" transform="translate(137.895 224.558)"/><path class="a" d="M929.819,539.956,1066.2,453.581l37.177,1.4L1746.294,49.1" transform="translate(72.631 34.492)"/><line class="a" x1="75.979" y2="49.139" transform="translate(1042.633 549.77)"/></g></svg>