<svg xmlns="http://www.w3.org/2000/svg" viewBox="0 0 197.335 144.867"><defs><style>.a{fill:#fff;}</style></defs><g transform="translate(-2406 -2075)"><g transform="translate(2406 2006.934)"><g transform="translate(151.375 129.881)"><g transform="translate(0 0)"><path class="a" d="M415.479,231.845c-6.715-3.357-19.3-3.4-19.837-3.4a2.891,2.891,0,0,0,0,5.781c3.249,0,12.681.5,17.252,2.786a2.891,2.891,0,0,0,2.585-5.171Z" transform="translate(-392.751 -228.449)"/></g></g><g transform="translate(0 68.066)"><g transform="translate(0 0)"><path class="a" d="M188.514,174.433l-11.938-3.411a1.212,1.212,0,0,1-.875-1.16v-3.985a21.724,21.724,0,0,0,2.764-2.267,21.265,21.265,0,0,0,6.509-15.384v-5.5l1.154-2.308a18.441,18.441,0,0,0,1.936-8.2v-14.9a2.891,2.891,0,0,0-2.891-2.891H157.356a18.366,18.366,0,0,0-18.345,18.345v.172a15.332,15.332,0,0,0,1.61,6.822l1.48,2.961v4.721a22.555,22.555,0,0,0,9.272,18.236v4.176c0,.644,0,.911-2.387,1.593l-5.825,1.664-16.851-6.127a2.887,2.887,0,0,0-.788-2.213l-5.385-5.657v-9.5c.569-.469,1.13-.951,1.674-1.46A33.927,33.927,0,0,0,132.5,123.5v-7.584a33.414,33.414,0,0,0,3.091-14.051V70.957a2.891,2.891,0,0,0-2.891-2.891H89.432A27.648,27.648,0,0,0,61.815,95.683v6.182a33.414,33.414,0,0,0,3.091,14.051v6.526A35.321,35.321,0,0,0,77.269,149.4v9.72l-5.385,5.657a2.887,2.887,0,0,0-.788,2.213l-17.785,6.467a15.158,15.158,0,0,0-3.574,1.872l-2.793-1.4c8.314-3.619,10.947-8.708,11.074-8.961a2.89,2.89,0,0,0,0-2.585c-2.084-4.168-2.336-11.807-2.539-17.946-.067-2.044-.131-3.974-.254-5.693-.986-13.865-11.526-24.321-24.519-24.321S7.174,124.883,6.189,138.748c-.122,1.719-.186,3.65-.254,5.694-.2,6.138-.456,13.776-2.539,17.944a2.89,2.89,0,0,0,0,2.585c.126.253,2.755,5.332,11.085,8.955l-7.757,3.878A12.1,12.1,0,0,0,0,188.685v21.356a2.891,2.891,0,0,0,5.781,0V188.685a6.347,6.347,0,0,1,3.527-5.708l9.66-4.83,3.36,3.193a12.157,12.157,0,0,0,16.757,0l3.36-3.193,3.15,1.575a15.222,15.222,0,0,0-2.325,8.071v22.248a2.891,2.891,0,0,0,5.781,0V187.793a9.5,9.5,0,0,1,6.235-8.9l18.752-6.818,7.806,11.71a5.96,5.96,0,0,0,4.387,2.634q.3.029.6.029a5.958,5.958,0,0,0,4.223-1.752l4.762-4.762v30.111a2.891,2.891,0,0,0,5.781,0V179.931l4.762,4.762a5.955,5.955,0,0,0,4.223,1.753q.3,0,.6-.029a5.96,5.96,0,0,0,4.388-2.634l7.806-11.709,18.751,6.818a9.5,9.5,0,0,1,6.235,8.9v22.248a2.891,2.891,0,0,0,5.781,0V187.794a15.281,15.281,0,0,0-4.275-10.576l.714-.2a15.852,15.852,0,0,0,2.69-.971l7.38,7.38v26.62a2.891,2.891,0,1,0,5.781,0v-26.62l7.329-7.329a6.879,6.879,0,0,0,1.23.488l11.939,3.411a6.409,6.409,0,0,1,4.629,6.136v23.913a2.891,2.891,0,0,0,5.781,0V186.129A12.216,12.216,0,0,0,188.514,174.433Zm-169.97-5.106c-5.407-1.946-8.119-4.539-9.277-5.956a31.863,31.863,0,0,0,1.648-6.922,21.556,21.556,0,0,0,7.629,9.413ZM35.1,177.15a6.379,6.379,0,0,1-8.793,0L23.623,174.6a5.981,5.981,0,0,0,.7-2.823v-3.081a21.5,21.5,0,0,0,12.763,0v3.079a5.981,5.981,0,0,0,.7,2.824Zm-4.4-13.27a15.671,15.671,0,0,1-15.654-15.654,2.873,2.873,0,0,0-3.365-2.848c.008-.249.017-.5.025-.744.064-1.988.126-3.865.241-5.475A21.461,21.461,0,0,1,17.8,125.681a17.96,17.96,0,0,1,25.816,0,21.461,21.461,0,0,1,5.844,13.477c.114,1.61.177,3.487.242,5.474.006.171.012.344.017.516a25.974,25.974,0,0,0-14.278-10.433,36.279,36.279,0,0,0-10.995-1.742,2.891,2.891,0,0,0-2,.883l-5.216,5.409a2.891,2.891,0,1,0,4.162,4.013l4.34-4.5c3.737.183,15.761,1.581,20.438,11.878A15.616,15.616,0,0,1,30.709,163.88Zm12.161,5.456v-3.448a21.382,21.382,0,0,0,7.632-9.423,31.822,31.822,0,0,0,1.646,6.906C51,164.775,48.272,167.392,42.87,169.337Zm27.817-46.9v-7.172a2.891,2.891,0,0,0-.288-1.257,27.728,27.728,0,0,1-2.8-12.148V95.683A21.86,21.86,0,0,1,89.432,73.848h40.38v28.017a27.728,27.728,0,0,1-2.8,12.148,2.891,2.891,0,0,0-.288,1.257V123.5a27.751,27.751,0,0,1-8.861,20.445,28.768,28.768,0,0,1-2.219,1.879l-.05.036a27.794,27.794,0,0,1-18.757,5.6C82.172,150.507,70.687,137.762,70.687,122.441Zm16.276,58.164a.182.182,0,0,1-.161.057.184.184,0,0,1-.147-.088l-8.99-13.485,2.893-3.04L94.2,173.371ZM98.7,169.45l-15.654-10.7v-5.4a32.547,32.547,0,0,0,13.409,3.871q1.143.074,2.274.074a33.483,33.483,0,0,0,15.624-3.829v5.28Zm12.049,11.125a.184.184,0,0,1-.147.088.178.178,0,0,1-.161-.057l-7.233-7.233,13.638-9.323,2.893,3.04Zm52.784-2.439-6.56-6.559a7.931,7.931,0,0,0,.179-1.717v-1.22a20.269,20.269,0,0,0,5.724,1.011c.223.007.444.01.666.01a21.472,21.472,0,0,0,6.373-.964v1.164a6.911,6.911,0,0,0,.209,1.685Zm10.9-18.675a15.536,15.536,0,0,1-11.384,4.412c-8.365-.251-15.171-7.619-15.171-16.424v-5.4a2.888,2.888,0,0,0-.305-1.293l-1.786-3.571a9.522,9.522,0,0,1-1-4.236v-.172a12.577,12.577,0,0,1,12.563-12.563h24.926v12.006a12.63,12.63,0,0,1-1.326,5.619l-1.459,2.918a2.889,2.889,0,0,0-.305,1.293v6.181A15.53,15.53,0,0,1,174.438,159.461Z" transform="translate(0 -68.066)"/></g></g><g transform="translate(179.191 188.606)"><path class="a" d="M467.814,380.814a2.891,2.891,0,0,0-2.891,2.891v18.545a2.891,2.891,0,0,0,5.781,0V383.7A2.891,2.891,0,0,0,467.814,380.814Z" transform="translate(-464.923 -380.814)"/></g><g transform="translate(12.363 192.427)"><path class="a" d="M34.968,390.728a2.891,2.891,0,0,0-2.891,2.891v14.723a2.891,2.891,0,1,0,5.781,0V393.619A2.891,2.891,0,0,0,34.968,390.728Z" transform="translate(-32.077 -390.728)"/></g><g transform="translate(74.178 94.327)"><g transform="translate(0 0)"><path class="a" d="M240.665,144.787c-10.933-10.933-33.807-8.843-43.135-7.437a5.934,5.934,0,0,0-5.07,5.912v6.659a2.891,2.891,0,1,0,5.781,0v-6.66a.191.191,0,0,1,.151-.2,91.323,91.323,0,0,1,18.78-.917c9.014.6,15.543,2.863,19.406,6.726a2.89,2.89,0,1,0,4.088-4.088Z" transform="translate(-192.46 -136.203)"/></g></g><g transform="translate(61.815 194.787)"><path class="a" d="M163.275,396.853a2.891,2.891,0,0,0-2.891,2.891v12.363a2.891,2.891,0,0,0,5.781,0V399.744A2.891,2.891,0,0,0,163.275,396.853Z" transform="translate(-160.384 -396.853)"/></g><g transform="translate(129.812 194.787)"><path class="a" d="M339.7,396.853a2.891,2.891,0,0,0-2.891,2.891v12.363a2.891,2.891,0,0,0,5.781,0V399.744A2.891,2.891,0,0,0,339.7,396.853Z" transform="translate(-336.806 -396.853)"/></g></g></g></svg>